{
    "asset" : {
        "generator" : "Khronos glTF Blender I/O v1.7.33",
        "version" : "2.0"
    },
    "scene" : 0,
    "scenes" : [
        {
            "name" : "Scene",
            "nodes" : [
                0
            ]
        }
    ],
    "nodes" : [
        {
            "mesh" : 0,
            "name" : "main.001",
            "translation" : [
                0,
                0.1775878667831421,
                0
            ]
        }
    ],
    "materials" : [
        {
            "doubleSided" : true,
            "name" : "metal2",
            "pbrMetallicRoughness" : {
                "baseColorTexture" : {
                    "index" : 0
                },
                "roughnessFactor" : 0.1515151560306549
            }
        },
        {
            "doubleSided" : true,
            "emissiveFactor" : [
                1,
                1,
                1
            ],
            "emissiveTexture" : {
                "index" : 1
            },
            "name" : "metal",
            "pbrMetallicRoughness" : {
                "baseColorFactor" : [
                    0.3807172179222107,
                    0.4474007785320282,
                    0.6099215745925903,
                    1
                ],
                "roughnessFactor" : 0.1818181872367859
            }
        },
        {
            "doubleSided" : true,
            "name" : "cubes",
            "pbrMetallicRoughness" : {
                "baseColorFactor" : [
                    0.5592014193534851,
                    0.6736034750938416,
                    0.8000000715255737,
                    1
                ],
                "roughnessFactor" : 0.30000001192092896
            }
        }
    ],
    "meshes" : [
        {
            "name" : "Plane.001",
            "primitives" : [
                {
                    "attributes" : {
                        "POSITION" : 0,
                        "NORMAL" : 1,
                        "TEXCOORD_0" : 2
                    },
                    "indices" : 3,
                    "material" : 0
                },
                {
                    "attributes" : {
                        "POSITION" : 4,
                        "NORMAL" : 5,
                        "TEXCOORD_0" : 6
                    },
                    "indices" : 7,
                    "material" : 1
                },
                {
                    "attributes" : {
                        "POSITION" : 8,
                        "NORMAL" : 9,
                        "TEXCOORD_0" : 10
                    },
                    "indices" : 11,
                    "material" : 2
                }
            ]
        }
    ],
    "textures" : [
        {
            "sampler" : 0,
            "source" : 0
        },
        {
            "sampler" : 0,
            "source" : 1
        }
    ],
    "images" : [
        {
            "mimeType" : "image/jpeg",
            "name" : "brandMain",
            "uri" : "brandMain.jpg"
        },
        {
            "mimeType" : "image/jpeg",
            "name" : "emission",
            "uri" : "emission.jpg"
        }
    ],
    "accessors" : [
        {
            "bufferView" : 0,
            "componentType" : 5126,
            "count" : 3840,
            "max" : [
                1.5116065740585327,
                1.5130250453948975,
                1.3658727407455444
            ],
            "min" : [
                -1.5568597316741943,
                -1.381626009941101,
                -1.6879889965057373
            ],
            "type" : "VEC3"
        },
        {
            "bufferView" : 1,
            "componentType" : 5126,
            "count" : 3840,
            "type" : "VEC3"
        },
        {
            "bufferView" : 2,
            "componentType" : 5126,
            "count" : 3840,
            "type" : "VEC2"
        },
        {
            "bufferView" : 3,
            "componentType" : 5123,
            "count" : 3840,
            "type" : "SCALAR"
        },
        {
            "bufferView" : 4,
            "componentType" : 5126,
            "count" : 59388,
            "max" : [
                1.5164905786514282,
                1.5179585218429565,
                1.370872139930725
            ],
            "min" : [
                -1.5618044137954712,
                -1.3863511085510254,
                -1.692793846130371
            ],
            "type" : "VEC3"
        },
        {
            "bufferView" : 5,
            "componentType" : 5126,
            "count" : 59388,
            "type" : "VEC3"
        },
        {
            "bufferView" : 6,
            "componentType" : 5126,
            "count" : 59388,
            "type" : "VEC2"
        },
        {
            "bufferView" : 7,
            "componentType" : 5123,
            "count" : 126720,
            "type" : "SCALAR"
        },
        {
            "bufferView" : 8,
            "componentType" : 5126,
            "count" : 15408,
            "max" : [
                1.5621793270111084,
                1.5757802724838257,
                1.426186442375183
            ],
            "min" : [
                -1.6145159006118774,
                -1.4397203922271729,
                -1.7313164472579956
            ],
            "type" : "VEC3"
        },
        {
            "bufferView" : 9,
            "componentType" : 5126,
            "count" : 15408,
            "type" : "VEC3"
        },
        {
            "bufferView" : 10,
            "componentType" : 5126,
            "count" : 15408,
            "type" : "VEC2"
        },
        {
            "bufferView" : 11,
            "componentType" : 5123,
            "count" : 23112,
            "type" : "SCALAR"
        }
    ],
    "bufferViews" : [
        {
            "buffer" : 0,
            "byteLength" : 46080,
            "byteOffset" : 0
        },
        {
            "buffer" : 0,
            "byteLength" : 46080,
            "byteOffset" : 46080
        },
        {
            "buffer" : 0,
            "byteLength" : 30720,
            "byteOffset" : 92160
        },
        {
            "buffer" : 0,
            "byteLength" : 7680,
            "byteOffset" : 122880
        },
        {
            "buffer" : 0,
            "byteLength" : 712656,
            "byteOffset" : 130560
        },
        {
            "buffer" : 0,
            "byteLength" : 712656,
            "byteOffset" : 843216
        },
        {
            "buffer" : 0,
            "byteLength" : 475104,
            "byteOffset" : 1555872
        },
        {
            "buffer" : 0,
            "byteLength" : 253440,
            "byteOffset" : 2030976
        },
        {
            "buffer" : 0,
            "byteLength" : 184896,
            "byteOffset" : 2284416
        },
        {
            "buffer" : 0,
            "byteLength" : 184896,
            "byteOffset" : 2469312
        },
        {
            "buffer" : 0,
            "byteLength" : 123264,
            "byteOffset" : 2654208
        },
        {
            "buffer" : 0,
            "byteLength" : 46224,
            "byteOffset" : 2777472
        }
    ],
    "samplers" : [
        {
            "magFilter" : 9729,
            "minFilter" : 9987
        }
    ],
    "buffers" : [
        {
            "byteLength" : 2823696,
            "uri" : "finalModel1.bin"
        }
    ]
}
